<?xml version="1.0" encoding="UTF-8" standalone="no"?>
<!-- Created with Inkscape (http://www.inkscape.org/) -->

<svg
   xmlns:dc="http://purl.org/dc/elements/1.1/"
   xmlns:cc="http://creativecommons.org/ns#"
   xmlns:rdf="http://www.w3.org/1999/02/22-rdf-syntax-ns#"
   xmlns:svg="http://www.w3.org/2000/svg"
   xmlns="http://www.w3.org/2000/svg"
   xmlns:sodipodi="http://sodipodi.sourceforge.net/DTD/sodipodi-0.dtd"
   xmlns:inkscape="http://www.inkscape.org/namespaces/inkscape"
   width="32px"
   height="32px"
   id="svg2996"
   version="1.1"
   inkscape:version="0.48.3.1 r9886"
   sodipodi:docname="shape4.svg">
  <defs
     id="defs2998">
    <inkscape:path-effect
       effect="spiro"
       id="path-effect3889"
       is_visible="true" />
  </defs>
  <sodipodi:namedview
     id="base"
     pagecolor="#ffffff"
     bordercolor="#666666"
     borderopacity="1.0"
     inkscape:pageopacity="0.0"
     inkscape:pageshadow="2"
     inkscape:zoom="11.197802"
     inkscape:cx="16"
     inkscape:cy="16"
     inkscape:current-layer="layer1"
     showgrid="true"
     inkscape:grid-bbox="true"
     inkscape:document-units="px"
     inkscape:window-width="1267"
     inkscape:window-height="859"
     inkscape:window-x="169"
     inkscape:window-y="24"
     inkscape:window-maximized="0" />
  <metadata
     id="metadata3001">
    <rdf:RDF>
      <cc:Work
         rdf:about="">
        <dc:format>image/svg+xml</dc:format>
        <dc:type
           rdf:resource="http://purl.org/dc/dcmitype/StillImage" />
        <dc:title></dc:title>
      </cc:Work>
    </rdf:RDF>
  </metadata>
  <g
     id="layer1"
     inkscape:label="Layer 1"
     inkscape:groupmode="layer">
    <path
       style="fill:#800080;stroke:#800080;stroke-width:1px;stroke-linecap:butt;stroke-linejoin:miter;stroke-opacity:1"
       d="M 26.165849,3.2443567 C 22.29154,3.2507497 18.418138,3.7011453 14.645732,4.5839053 13.750937,4.7932913 12.857968,5.0281949 12.012454,5.3882027 11.166939,5.7482105 10.366165,6.2387547 9.7340532,6.9057896 9.0218956,7.6572932 8.5436926,8.6172669 8.3154147,9.627126 c -0.2282778,1.009859 -0.2118197,2.067855 -0.010213,3.083375 0.1779948,0.896585 0.4968423,1.758945 0.7136272,2.646949 0.216785,0.888003 0.3292022,1.828988 0.090102,2.711245 -0.2567627,0.947429 -0.8928785,1.741152 -1.5440573,2.475669 -0.6511789,0.734517 -1.3450085,1.457214 -1.7601625,2.346706 -0.3433555,0.73566 -0.4794814,1.568814 -0.3738361,2.373754 0.1056452,0.804939 0.4546363,1.578381 0.9989587,2.180711 0.6787932,0.751131 1.6307407,1.213648 2.6125731,1.460555 0.9818326,0.246907 2.0016256,0.293829 3.0135316,0.32551 0.91775,0.02873 1.839646,0.04571 2.750943,-0.06667 0.911296,-0.112375 1.816986,-0.358851 2.607251,-0.826367 0.913076,-0.54017 1.648878,-1.370996 2.087268,-2.337074 0.43839,-0.966077 0.579372,-2.062623 0.413223,-3.110424 -0.17312,-1.091762 -0.665671,-2.107379 -1.229452,-3.058203 -0.563781,-0.950824 -1.205055,-1.856393 -1.717555,-2.835811 -0.580024,-1.108461 -0.994239,-2.32942 -0.998593,-3.580458 -0.0022,-0.625519 0.09935,-1.253649 0.323646,-1.837576 0.224296,-0.583927 0.573009,-1.122814 1.03216,-1.547619 0.779636,-0.721316 1.836571,-1.0805122 2.890098,-1.2154595 1.053526,-0.1349473 2.120812,-0.06479 3.182522,-0.034786 0.780537,0.022058 1.58399,0.01832 2.310333,-0.2683013 0.363171,-0.1433105 0.701822,-0.3581277 0.962702,-0.6485976 0.26088,-0.29047 0.440845,-0.6590915 0.477701,-1.0477724 C 27.19894,6.281236 26.982462,5.7589834 26.743762,5.2772246 26.505063,4.7954658 26.234965,4.3133665 26.165849,3.7801762 c -0.02302,-0.1776161 -0.02302,-0.3582034 0,-0.5358195"
       id="path3887"
       inkscape:path-effect="#path-effect3889"
       inkscape:original-d="M 26.165849,3.2443567 C 14.645732,4.5839053 19.55741,2.2620211 14.645732,4.5839053 9.7340532,6.9057896 11.252208,1.0117757 9.7340532,6.9057896 8.2158981,12.799804 7.1442593,5.4769377 8.3052014,12.710501 c 1.1609421,7.233562 4.1079496,0.535819 0.8037291,5.358194 -3.3042198,4.822375 -3.8400393,0.178606 -3.3042198,4.822375 0.5358194,4.643768 -5.00098154,2.7684 0.6251226,4.554465 5.6261047,1.786065 0.2679098,2.589794 5.6261047,1.786065 5.358194,-0.803729 2.857703,4.554465 5.358194,-0.893032 2.500491,-5.447498 5.447498,-0.178607 2.500491,-5.447498 -2.947007,-5.268891 -3.30422,1.160942 -2.947007,-5.894014 0.357213,-7.0549563 -5.715408,-5.715408 0.357213,-6.965653 6.07262,-1.2502454 2.321884,0.803729 6.07262,-1.2502454 3.750736,-2.0539745 4.733072,1.1609421 3.750736,-1.9646713 -0.982336,-3.1256134 -0.625123,-2.4111874 -0.982336,-3.0363101 -0.357212,-0.6251227 0,-0.5358195 0,-0.5358195 z"
       inkscape:connector-curvature="0" />
  </g>
</svg>
